<?xml version="1.0" encoding="utf-8"?>
<!-- Generator: Adobe Illustrator 21.1.0, SVG Export Plug-In . SVG Version: 6.00 Build 0)  -->
<svg version="1.1" id="Layer_1" xmlns="http://www.w3.org/2000/svg" xmlns:xlink="http://www.w3.org/1999/xlink" x="0px" y="0px"
	 viewBox="0 0 1000 1000" style="enable-background:new 0 0 1000 1000;" xml:space="preserve">
<style type="text/css">
	.st0{fill:#232B30;}
	.st1{fill:#2E84BF;}
	.st2{fill:#CE2828;}
</style>
<g id="Calque_2">
	<path class="st0" d="M304.4,891.3h391.2c107,0,194.5-87.5,194.5-194.5V305.6c0-107-87.5-194.5-194.5-194.5H304.4
		c-107,0-194.5,87.5-194.5,194.5v391.2C109.9,803.8,197.5,891.3,304.4,891.3z"/>
</g>
<g id="Calque_1">
	<path class="st1" d="M474.4,242.2c115.3-1.4,144.2,48.2,185.2,74.7c21.6,8.3,17.7,16.3,26.2,28.7c2.5,3.5,5.5,5,9.5,7.5
		c30.3,18.2-10.8,39.6-28.2,40.3c7.1-4.6,13.2-5.9,17.7-12.4c-0.3,0-0.6,0-0.9,0c0-0.3,0-0.6,0-0.9c-14.6-4-13.3,8.8-29.2,6.2
		c3.5-0.4,12.6-5.8,12.4-13.3c-11.9-7.2-31.6-15.2-46.9-14.2c-0.1,0.4-0.1,0.4-0.2,0.8c36.3,24.2,25.7,57.3,47.1,63.8
		c-11.6-0.5-5.9,2.1,0,7.1c-14.6-3-16.1-19.2-23-33.6c-7.8-12.9-15.4-28.5-23.9-29.2c-2,9.2,2,56.4,14.7,46.6
		c-10,12.3,4.4,7.2,11,4.7c-23.9,19-35.1,13.8-42.8-13.8c-6.2-13.4-14.6-34.2-19.5-46.6c-2.8-7.1-7.5-13.3-13.6-17.9
		c-41.8-31.2-72.8-33.3-116.9-26.1c-11.1-21.4-27.5-40.4-38.9-61.9C435,247.7,452,242.4,474.4,242.2z"/>
	<path class="st1" d="M313.4,336C395.3,494.3,482,442.7,607.1,502.8c109.3,67.9,83.8,212.8-30.1,257.7c0-28.3,0-56.6,0-84.9
		c46.4-45.1,20.7-112.1-37.1-125c-68.8-15-145.6-29.5-191.7-62.5C298,450.3,286.6,386.8,313.4,336z"/>
	<path class="st1" d="M424.8,690.6c0.1,25.4,1.9,53.9-0.9,77.8c-94.2-25.7-162.5-103.3-124.7-192.8c0,4.7,0,9.4,0,14.2
		C307.8,650,359.3,682.6,424.8,690.6z"/>
</g>
<g id="Calque_3">
	<path class="st2" d="M247,198l138.9,37.1L500,414.7l47.8-72.5c34.5,14.5,37,85.5,55.7,96.4l-23,34.5
		C477,444.9,387.8,439.9,351.3,364.7C317.9,311.3,247.1,198.1,247,198z"/>
	<path class="st2" d="M602.6,255.5c16.2,9.6,33.1,19.8,46.5,32.8c7.5,7.2,14.9,12.3,25.3,18.3c3.9,2.2,4.7,2.1,7.8,4.7L753,198
		l-137.1,37.1L602.6,255.5z"/>
	<path class="st2" d="M500.9,841l61.9-50.4l0.9-212.3c0,0-4.5-11.4-85.2-25.5c-17.1-3-29.7-7.2-29.8-7.2l-12.3-3.6l1.8,248.5
		L500.9,841z"/>
</g>
</svg>
